<svg xmlns="http://www.w3.org/2000/svg" width="213" height="96" viewBox="0 0 213 96"><g><g><g><path fill="#987b5e" d="M151.914 18.708a6.077 6.077 0 0 1-6.076 6.397 6.077 6.077 0 1 1 6.076-6.077zm-.64 55.01h-10.553V32.14h10.554z"/></g><g><path fill="#987b5e" d="M181.977 11.992a47.013 47.013 0 0 0-11.193-1.919 11.833 11.833 0 0 0-10.874 5.117c-1.6 2.559-2.239 4.798-2.239 11.834v46.693h10.554v-34.54h9.275V32.14h-8.955v-6.397c0-6.076.96-7.995 5.437-7.995l7.036.64z"/></g><g><path fill="#987b5e" d="M187.734 54.528v1.28c0 7.355 3.198 10.554 9.275 10.554a42.217 42.217 0 0 0 13.752-2.559l1.92 6.077a44.775 44.775 0 0 1-18.55 4.797c-10.554 0-17.59-7.356-17.59-20.788 0-13.433 7.355-22.708 18.869-22.708 11.513 0 17.59 7.036 17.59 21.748v1.6zm15.671-6.396c-.32-7.036-2.558-10.234-7.355-10.234-4.798 0-7.676 3.837-8.316 10.873l15.671-.64z"/></g><g><path fill="#987b5e" d="M137.523 74.357h-5.757c-10.554 0-17.27-7.036-17.27-20.149V10.393h11.193v45.415c0 7.355 4.158 12.153 11.834 10.554z"/></g><g><path fill="#473625" d="M57.887 54.528v1.28c0 7.355 3.199 10.554 9.275 10.554a42.217 42.217 0 0 0 13.752-2.559l1.92 6.077a44.775 44.775 0 0 1-18.55 4.797c-10.554 0-17.59-7.356-17.59-20.788 0-13.433 7.356-22.708 18.87-22.708 11.513 0 17.59 7.036 17.59 21.748v1.6zm15.672-6.396c-.32-7.036-2.559-10.234-7.356-10.234-4.798 0-7.676 3.837-8.316 10.873l15.672-.64z"/></g><g><path fill="#473625" d="M111.617 72.118l-1.28-6.396-6.715.96c-2.24 0-3.518-.64-4.158-1.6-.64-.96-.64-1.279-.64-8.315v-17.59h11.194V32.14H98.505V20.627H87.95v38.059c0 6.396.32 8.955 1.28 11.194a10.234 10.234 0 0 0 9.914 4.797 38.059 38.059 0 0 0 12.473-2.559"/></g><g><path fill="#473625" d="M0 15.19h12.473l16.31 44.775C30.384 40.776 39.019 9.434 71 .48h.32l2.878 9.914c-6.396 1.6-30.702 9.914-34.86 51.491-.42 3.933-.42 7.9 0 11.833h-16.63z"/></g><g><path fill="#473625" d="M62.045 94.826l-.96-2.559h-4.477l-.96 2.559H53.73l3.838-11.194h2.558l4.158 11.513zm-3.198-9.275l-1.6 5.437h3.199z"/></g><g><path fill="#473625" d="M71.96 95.145v-5.437a3.518 3.518 0 0 0-.32-2.238 1.919 1.919 0 0 0-1.92-.96l-2.878.96v-.64h-1.919v7.996h2.24v-6.077h1.598c.96 0 .96.64.96 1.6v4.796z"/></g><g><path fill="#473625" d="M76.117 84.591a1.28 1.28 0 0 1-1.599.96 1.28 1.28 0 0 1 0-2.239c.707 0 1.28.573 1.28 1.28zm-.32 10.554h-1.919V87.15h1.92z"/></g><g><path fill="#473625" d="M88.27 95.145v-5.117c0-1.599 0-3.198-1.919-3.198l-2.558.96a1.6 1.6 0 0 0-1.6-.96l-2.558.96v-.64h-1.919v7.995h1.92V88.75h1.278c.96 0 .96.96.96 1.919v4.477h1.919V88.75h1.28c.959 0 .959.96.959 1.919v4.477z"/></g><g><path fill="#473625" d="M94.347 95.145v-.64l-2.559.96c-1.279 0-2.238-.96-2.238-2.558-.06-.7.171-1.395.64-1.92.959-.639 2.558-.639 3.837-.639 0-1.28 0-1.599-1.28-1.599H90.51v-1.28l3.518-.639a2.239 2.239 0 0 1 1.919.96c.355.803.466 1.692.32 2.558v4.478zm0-4.477c-1.92 0-2.559.32-2.559 1.28 0 .959.32 1.278.96 1.278h1.599z"/></g><g><path fill="#473625" d="M97.865 94.953v-11.96h1.919v11.96z"/></g><g><path fill="#473625" d="M114.496 95.145V83.632h-1.92v4.797H108.1v-4.797h-2.239v11.513h2.24v-5.117h4.477v5.117z"/></g><g><path fill="#473625" d="M123.13 91.947h-4.797c0 1.28.64 1.92 1.92 1.92l2.558-.64v.959l-3.518.96c-1.92 0-3.198-1.28-3.198-3.838 0-2.559 1.279-4.478 3.518-4.478 2.238 0 3.518 1.28 3.518 4.158zm-1.918-2.239c0-1.279-.32-1.919-1.28-1.919-.959 0-1.599.96-1.599 2.24h3.199z"/></g><g><path fill="#473625" d="M128.568 95.145v-.64l-2.559.96c-1.28 0-2.239-.96-2.239-2.558-.06-.7.172-1.395.64-1.92.96-.639 2.559-.639 3.838-.639 0-1.28 0-1.599-1.28-1.599h-2.238v-1.28l3.518-.639a2.239 2.239 0 0 1 1.919.96c.355.803.466 1.692.32 2.558v4.478zm0-4.477c-1.92 0-2.559.32-2.559 1.28 0 .959.32 1.278.96 1.278h1.599z"/></g><g><path fill="#473625" d="M132.405 94.953v-11.96h1.92v11.96z"/></g><g><path fill="#473625" d="M141.36 94.826v-1.28h-2.238V88.43h1.599v-1.28h-2.239v-2.238h-1.919v2.239h-1.28v.96h1.28v3.837a4.797 4.797 0 0 0 .32 2.239 1.919 1.919 0 0 0 1.919.96l2.239-.64"/></g><g><path fill="#473625" d="M149.036 95.145v-5.437a3.518 3.518 0 0 0-.32-2.238 1.919 1.919 0 0 0-1.599-.64l-2.878.96v-4.798h-1.92v11.834h1.92v-6.077h1.599c.96 0 .96.64.96 1.599v4.797z"/></g><g><path fill="#473625" d="M162.788 87.15a3.518 3.518 0 0 1-.64 2.558 4.478 4.478 0 0 1-3.198.96h-1.599v3.838h-2.238V83.312h3.837l2.879.64a3.198 3.198 0 0 1 1.28 2.878zm-1.919-.32a1.6 1.6 0 0 0-.96-1.6h-2.877v3.519h2.878a1.6 1.6 0 0 0 .96-1.6z"/></g><g><path fill="#473625" d="M167.905 95.145v-.64l-2.558.96c-1.28 0-2.239-.96-2.239-2.558-.06-.7.172-1.395.64-1.92.96-.639 2.558-.639 3.838-.639 0-1.28 0-1.599-1.28-1.599h-2.238v-1.28l3.518-.639a2.239 2.239 0 0 1 1.919.96c.355.803.466 1.692.32 2.558v4.478zm0-4.477c-1.919 0-2.558.32-2.558 1.28 0 .959.32 1.278.96 1.278h1.598z"/></g><g><path fill="#473625" d="M176.22 88.749V86.83h-.32l-2.558.96v-.96h-1.919v7.996h1.92v-5.757h2.558"/></g><g><path fill="#473625" d="M182.297 94.826v-1.28h-2.238V88.43h2.238v-1.28h-2.238v-2.238h-1.92v2.239h-1.279v.96h1.28v3.837a4.797 4.797 0 0 0 .32 2.239 1.919 1.919 0 0 0 1.918.96l2.24-.64"/></g><g><path fill="#473625" d="M190.293 95.145v-5.437a3.518 3.518 0 0 0-.32-2.238 1.919 1.919 0 0 0-1.919-.96l-2.878.96v-.64h-1.92v7.996h2.24v-6.077h1.599c.96 0 .96.64.96 1.6v4.796z"/></g><g><path fill="#473625" d="M198.608 91.947h-4.797c0 1.28.64 1.92 1.919 1.92l2.558-.64v.959l-3.518.96c-1.919 0-3.198-1.28-3.198-3.838 0-2.559 1.28-4.478 3.518-4.478 2.239 0 3.518 1.28 3.518 4.158zm-1.919-2.239c0-1.279-.32-1.919-1.28-1.919-.959 0-1.598.96-1.598 2.24h2.878z"/></g><g><path fill="#473625" d="M204.685 88.749V86.83h-.32l-2.559.96v-.96h-1.919v7.996h1.92v-5.757h2.878"/></g><g><path fill="#473625" d="M210.761 92.587c0-2.879-3.838-1.92-3.838-3.198 0-1.28.64-.96 1.28-.96h1.919v-1.28h-2.24c-1.918 0-2.877.96-2.877 2.56 0 1.599.959 1.918 2.558 2.238 1.6.32 1.28.32 1.28.96 0 .64-.64.96-1.6.96h-1.919v1.278h2.559c2.239 0 3.198-.96 3.198-2.878"/></g></g></g></svg>